<?xml version="1.0" encoding="utf-8"?>
<svg xmlns="http://www.w3.org/2000/svg" xmlns:xlink="http://www.w3.org/1999/xlink" version= "1.1" width="1548px" height="1106px" viewBox="-234 509 1548 1106">
<g id="layer1">
<g style="fill:rgb(255,254,238); fill-opacity:1.0; stroke-linejoin: miter">
<path d="M-234.001,508.056C-234.2511,508.056,-234.49095,508.15533,-234.6678,508.33218C-234.84465,508.50903,-234.944,508.7489,-234.944,508.999L-234.943,1615.0C-234.943,1615.5208,-234.5208,1615.943,-234.0,1615.943L1314.001,1615.944C1314.2511,1615.944,1314.4908,1615.8446,1314.6677,1615.6677C1314.8446,1615.4908,1314.944,1615.2511,1314.944,1615.001L1314.943,509.0C1314.943,508.4792,1314.5208,508.057,1314.0,508.057L-234.001,508.056 Z"/>
</g>
<g style="fill:rgb(79,185,82); fill-opacity:0.39607844; stroke-linejoin: miter">
<path d="M1021.1192,1451.5804L1017.22,1462.2639Q1010.5314,1474.6061,960.2261,1492.4232Q922.20825,1503.9543,855.0026,1513.9072Q732.50116,1532.0469,549.3907,1529.973Q458.74258,1527.7896,379.80423,1519.8486Q319.99185,1513.1874,277.31668,1504.3962Q256.00165,1500.3131,234.23788,1493.7412Q220.40321,1490.818,187.33633,1475.5823Q165.09523,1463.3213,166.9251,1450.6472Q172.87508,1417.8033,292.27087,1396.1112Q416.10614,1373.3088,594.00714,1372.8489Q691.18463,1373.8027,743.2917,1377.8208Q795.10785,1381.8525,830.1989,1385.734Q867.558,1390.6771,896.02106,1395.9089Q940.0848,1403.3553,980.24695,1417.8763Q1010.4609,1432.3853,1011.7946,1434.9996Q1019.9854,1443.6919,1021.1192,1451.5804"/>
</g>
<g>
<g style="fill:rgb(145,207,150); fill-opacity:1.0; stroke-linejoin: miter">
<path d="M319.0366,1414.7504C319.0364,1140.1708,25.725407,1434.304,25.725407,1434.304C25.725338,1320.2434,89.27532,1140.9927,279.93002,1140.993C285.22983,1143.028,436.36392,1115.6901,436.3641,1414.7513L319.0366,1414.7543 Z"/>
</g>
<g style="fill:rgb(145,207,150); fill-opacity:1.0; stroke-linejoin: miter">
<path d="M827.4468,1414.7491C827.4464,1140.1702,1120.7582,1434.3036,1120.7582,1434.3036C1120.758,1320.2438,1057.208,1140.9932,866.5531,1140.9927C861.2533,1143.0273,710.1188,1115.6898,710.119,1414.7511L827.4468,1414.7535 Z"/>
</g>
<g style="fill:rgb(90,186,99); fill-opacity:1.0; stroke-linejoin: miter">
<path d="M553.68713,1414.7494C553.6871,898.96936,726.6244,825.07495,964.3244,925.89655C964.3244,925.89655,710.1188,998.618,710.119,1414.7494L553.68713,1414.7511 Z"/>
</g>
<g style="fill:rgb(145,207,150); fill-opacity:1.0; stroke-linejoin: miter">
<path d="M553.68713,1414.7494C553.687,1177.7323,590.27185,1034.2269,652.8078,957.9078C637.39764,818.9553,499.63922,749.90894,397.253,749.9087C434.7573,787.41315,491.54315,845.9386,494.71112,1045.4508C531.0051,1123.4325,554.21436,1240.9904,553.68713,1414.7494"/>
</g>
<g style="fill:rgb(90,186,99); fill-opacity:1.0; stroke-linejoin: miter">
<path d="M84.38783,984.5601C207.51996,984.56,303.9999,1067.3319,364.5801,1170.3246C401.4397,1202.7645,436.36398,1270.9879,436.3641,1414.7513L553.68945,1414.7535C556.0329,639.682,87.0264,980.1392,84.38783,984.5601"/>
</g>
</g>
<g style="fill:rgb(0,0,0); fill-opacity:1.0; stroke-linejoin: miter">
<path d="M419.7604,821.74945L419.52402,821.7553Q416.22928,821.4374,409.1744,827.86597L402.26303,829.41284Q400.05356,830.78546,397.7825,832.6813Q392.1003,837.40295,386.92813,849.63873Q385.05643,854.33417,384.93265,857.4924Q384.75912,859.53925,385.91727,864.39056L385.7784,866.3051Q385.5109,868.2336,382.26053,873.0406Q380.6144,877.62775,380.72238,879.52045Q380.51096,882.70966,384.4775,888.05817L386.9705,906.7043L387.08646,896.6147Q387.5942,892.19403,388.113,892.40485Q388.36557,892.4069,388.67117,893.11835Q390.9689,899.72955,391.77298,900.3958Q393.02493,902.0986,394.91397,901.90436Q395.88303,901.8736,397.59396,901.0041L454.60666,886.8868Q459.46097,871.7872,459.70853,862.4399Q460.0273,854.9111,455.618,845.91693Q449.5875,835.1058,442.52487,830.8058Q438.9625,828.40686,433.15427,826.1188Q421.07504,821.0513,419.7604,821.74945"/>
</g>
<g style="fill:rgb(13,0,0); fill-opacity:1.0; stroke-linejoin: miter">
<path d="M489.6865,1396.321L461.00278,1413.3447L456.20853,1424.56Q465.1816,1442.1584,468.22147,1445.3123Q471.5513,1449.479,475.2219,1446.5034Q485.57187,1470.5955,491.7908,1483.4475Q502.86795,1498.2439,513.0907,1503.8872Q524.93054,1510.356,533.4381,1506.822Q535.7624,1504.947,536.00507,1503.8501Q537.27704,1500.9888,537.20667,1497.104Q537.12286,1489.7227,533.648,1480.5193Q532.37134,1477.3608,530.25995,1473.3323Q517.38635,1449.5842,489.6865,1396.321"/>
</g>
<g style="fill:rgb(13,0,0); fill-opacity:1.0; stroke-linejoin: miter">
<path d="M503.5123,1410.5479L503.83823,1414.0906Q505.6945,1437.4424,509.85,1450.0645Q513.3396,1461.5374,525.9585,1477.5186Q540.45496,1474.4744,545.6761,1470.262Q549.9026,1467.0574,549.10077,1458.7671Q548.7641,1455.7329,548.15967,1452.581L527.6643,1419.0703L503.5123,1410.5479"/>
</g>
<g style="fill:rgb(255,190,167); fill-opacity:1.0; stroke-linejoin: miter">
<path d="M479.31155,1405.7859L479.38327,1408.1372Q479.86142,1426.9395,482.7946,1436.6248Q487.33975,1452.2014,493.6439,1460.459Q497.91428,1465.6875,503.44974,1466.9731Q505.8668,1462.5925,508.8652,1462.0754Q511.993,1461.2944,520.4824,1462.9729L518.9617,1413.9607L479.31155,1405.7859"/>
</g>
<g style="fill:rgb(255,190,167); fill-opacity:1.0; stroke-linejoin: miter">
<path d="M529.313,1421.2576L514.50745,1425.1179L517.3956,1438.408Q519.4617,1438.1809,520.7522,1437.8279Q523.10583,1437.1436,524.8191,1436.1177Q526.7367,1435.1064,532.10114,1431.3293L529.313,1421.2576"/>
</g>
<g style="fill:rgb(0,0,0); fill-opacity:1.0; stroke-linejoin: miter">
<path d="M496.48288,1131.7524L478.87875,1134.616L385.33395,1145.617Q386.0018,1177.9692,388.09036,1193.3796Q389.43777,1205.3938,395.1987,1214.5535Q406.92172,1231.1755,417.93027,1239.4214Q425.98978,1245.74,437.8799,1251.4133Q493.23868,1274.3362,494.1959,1277.1223L474.53488,1351.3171Q473.6229,1357.8567,474.27524,1360.0168Q474.40732,1362.6045,478.618,1372.7048Q479.1135,1374.5574,478.65182,1375.8569Q477.8779,1378.1521,474.0214,1380.24L457.5203,1418.4001L481.1086,1411.3933Q496.88815,1412.9753,504.77573,1414.3657Q514.00574,1416.1062,519.6155,1419.1587L519.77026,1429.3225L526.22205,1426.4617L534.2012,1418.542Q533.1158,1411.2598,534.9252,1371.6509L545.29425,1334.0503Q562.95886,1317.332,569.3569,1306.0742Q574.9518,1296.439,574.2679,1286.0024Q574.083,1274.7749,563.971,1251.8982Q563.7681,1249.679,564.1507,1247.2546L567.4122,1227.1873Q568.1066,1221.583,568.0627,1215.9565Q568.413,1205.9817,562.65027,1192.8645Q558.9501,1184.5239,547.9004,1174.0569L496.48288,1131.7524"/>
</g>
<g style="fill:rgb(0,0,0); fill-opacity:1.0; stroke-linejoin: miter">
<path d="M395.49832,922.43085L381.09482,941.93475L368.35135,951.73444Q356.4708,958.0649,353.57266,960.54083Q348.2762,964.7961,347.11954,967.003Q344.36536,971.2652,343.37585,976.1347Q338.03696,1002.6893,338.55103,1006.67804Q338.36075,1009.49164,339.52008,1014.7774Q340.10324,1017.861,343.81876,1025.543Q350.39346,1057.2324,353.5634,1063.7866Q356.8151,1072.0391,362.9011,1069.8413Q367.62527,1091.106,370.68448,1097.1421Q373.6191,1103.9985,380.88272,1108.5183L379.06564,1177.9431Q378.7966,1186.0422,380.95932,1189.7415Q383.9617,1195.3569,400.91592,1194.7974L484.15463,1187.2722L465.12668,1137.8647L478.85208,1138.7383L497.57748,1152.8264L533.103,1158.1484Q512.2715,1139.998,510.67404,1120.9646Q509.7803,1113.5798,510.0629,1105.1399Q510.57822,1092.3977,512.0864,1078.7651L512.1865,1063.8018Q512.47595,1022.57745,511.32693,1003.7Q509.66714,973.0782,502.18808,960.88885Q498.3115,953.84393,489.08176,948.8935Q471.31375,946.41547,450.21103,937.98944L442.47128,929.44086L395.49832,922.43085"/>
</g>
<g style="fill:rgb(255,255,255); fill-opacity:1.0; stroke-linejoin: miter">
<path d="M439.72678,969.70795L439.2808,970.1713Q436.56747,973.2662,432.66196,974.49994Q428.21982,975.7271,421.8358,976.01324L425.4783,976.2923Q428.11966,976.94696,429.91403,978.7144L431.55362,980.6882Q433.01022,982.90436,433.962,985.80194Q434.91403,988.69965,435.58975,991.9914Q438.17294,1005.424,438.32962,1005.2962L444.55283,1029.3115L455.11356,1065.0771L452.5975,1008.3167Q454.90164,1003.7343,455.62772,1000.95905Q456.60123,997.6711,456.12283,993.78156Q455.23312,987.8758,450.58395,977.95123L441.03128,975.6154L439.72678,969.70795"/>
</g>
<g style="fill:rgb(255,255,255); fill-opacity:1.0; stroke-linejoin: miter">
<path d="M463.28104,1119.4534L464.83554,1138.9849L479.39066,1138.6802L463.28104,1119.4534"/>
</g>
<g style="fill:rgb(255,190,167); fill-opacity:1.0; stroke-linejoin: miter">
<path d="M439.61386,852.1705L438.30453,852.23724Q432.23367,852.8763,421.45242,857.59467Q405.99466,871.0861,395.09518,875.8343L394.35757,885.3376Q388.51932,882.8554,388.1382,888.7896Q387.62515,892.6469,391.0319,897.9821Q393.11716,901.606,396.82956,901.7507L399.01474,924.78156L396.9545,933.9288L401.37234,949.98834Q410.2158,967.2763,414.60922,970.9638Q416.59036,973.08136,420.18002,976.2364Q424.6865,976.96844,426.7048,976.79803Q436.70718,975.55804,441.28683,967.80475Q441.8582,966.4328,442.12393,964.0224Q441.58218,934.38214,440.70718,931.60626Q448.7156,920.9417,450.79684,916.1385Q453.68845,910.61444,454.61624,901.3112Q456.353,883.6429,453.7867,863.7602Q446.8193,851.2896,439.61386,852.1705"/>
</g>
<g style="fill:rgb(234,219,190); fill-opacity:1.0; stroke-linejoin: miter">
<path d="M619.7973,1015.4533L617.73254,1015.5433C608.201,1016.38245,599.5602,1019.58435,592.15295,1025.5806C589.7057,1027.5618,587.96533,1029.9188,586.5723,1032.2336C586.28064,1032.0989,584.2509,1036.8417,579.91394,1046.2053C578.9278,1048.3344,577.5412,1050.2635,575.6562,1051.3408C571.50543,1053.713,568.74023,1053.7883,567.96844,1052.5276C567.53723,1051.8232,567.3852,1050.8864,567.65173,1049.813C569.9718,1040.4697,570.94165,1035.6344,570.3409,1035.2515C570.0719,1032.745,567.4427,1032.336,562.44006,1033.9846C560.6277,1034.5819,557.5851,1035.2517,553.9921,1037.3491C543.9376,1043.2185,534.96454,1049.7722,526.2683,1055.7019C514.53357,1063.7035,506.04932,1070.6892,500.77798,1076.6472C497.29117,1080.5883,494.94196,1084.7825,493.99283,1089.3354C492.96927,1094.2455,494.3126,1098.0979,497.83322,1100.8545C490.74875,1109.5753,487.91956,1119.2448,489.66953,1129.8108C490.61563,1135.5233,492.28415,1139.0156,494.35202,1140.3442C496.3165,1142.5469,501.09628,1144.018,508.69125,1144.7576C518.3926,1145.7023,530.33746,1140.074,545.735,1134.1649C566.42145,1126.2261,579.71606,1107.8599,579.71606,1107.8599C610.3582,1067.2627,626.3272,1042.7334,629.2789,1034.8257C631.3695,1029.2249,632.38104,1024.4451,630.5855,1019.84357C629.52545,1017.12695,625.8886,1015.6798,619.7973,1015.4533 Z"/>
</g>
<g style="fill:rgb(49,48,44); fill-opacity:1.0; stroke-linejoin: miter">
<path d="M442.89694,1023.99884L442.6603,1025.0474L442.42374,1026.096L513.19995,1040.6201L514.7279,1038.2454L442.89694,1023.99884"/>
</g>
<g style="fill:rgb(49,48,44); fill-opacity:1.0; stroke-linejoin: miter">
<path d="M561.61053,1048.4133L561.35547,1048.4192Q560.54407,1048.4341,559.04706,1048.6958L557.4906,1052.3569Q559.9342,1053.8511,561.317,1054.4014Q561.9214,1054.6323,562.4465,1054.7288L564.35376,1055.0071Q564.9525,1055.1077,565.70154,1055.3345Q566.7752,1055.633,570.00085,1056.9446Q568.1768,1054.7764,567.21344,1053.4197Q566.59564,1052.5991,565.38416,1050.4363Q564.85156,1049.6304,564.71545,1049.5234Q563.6594,1048.3176,561.61053,1048.4133"/>
</g>
<g style="fill:rgb(168,169,163); fill-opacity:1.0; stroke-linejoin: miter">
<path d="M554.6995,1046.971L553.6485,1052.1553L558.7092,1052.7786L559.5554,1048.2803L554.6995,1046.971"/>
</g>
<g style="fill:rgb(49,48,44); fill-opacity:1.0; stroke-linejoin: miter">
<path d="M541.36804,1043.821L538.11646,1050.0642L554.1748,1052.3132L554.9393,1046.9724L541.36804,1043.821"/>
</g>
<g style="fill:rgb(255,190,167); fill-opacity:1.0; stroke-linejoin: miter">
<path d="M517.75867,1035.169L505.19357,1038.0833L456.36813,1063.5884L407.16647,1078.2747L383.8212,1106.4487Q389.20065,1113.1106,392.986,1115.4546Q396.8784,1117.9802,401.90823,1116.7849Q403.9915,1116.3083,406.14914,1115.4434L413.71072,1112.3093Q419.28653,1110.3425,441.1663,1103.4343Q463.98996,1088.7351,472.13565,1084.2246Q480.86417,1079.2075,491.78934,1074.8523Q497.07883,1075.543,500.35043,1074.8813Q503.27115,1074.3977,509.3876,1071.4121Q523.823,1072.6904,525.07434,1070.7808Q525.75134,1070.2192,526.0,1069.4966Q526.3114,1065.7742,527.374,1065.0906Q526.8502,1064.9744,533.12616,1061.9324Q534.184,1061.3157,534.62683,1060.6155Q535.4906,1059.0256,533.5795,1056.3242Q537.93915,1056.3079,538.6753,1054.929Q539.3002,1054.5706,539.489,1049.3833L539.9973,1048.7227Q540.86774,1048.9124,542.59125,1046.9421Q543.53296,1045.6245,543.16846,1044.9265Q544.212,1043.2034,527.772,1035.9033L517.75867,1035.169"/>
</g>
<g style="fill:rgb(255,0,0); fill-opacity:0.050980393; stroke-linejoin: miter">
<path d="M440.8384,930.9351L435.56943,935.8874Q436.68222,935.56305,438.75735,933.69257Q439.90213,932.53644,440.8384,930.9351 M399.59048,914.39764L397.16537,935.03326L405.27188,964.3643L435.5674,935.88934Q431.40305,937.6772,427.1409,937.42926Q425.00992,937.3055,422.85452,936.6723L420.69284,935.9123Q418.52536,935.02496,416.3331,933.6287Q411.74692,931.17035,404.41336,923.3094Q403.83133,922.67,401.99808,919.96747Q401.3276,918.91534,400.83658,917.94586Q399.85458,916.00665,399.59048,914.39764"/>
</g>
<g style="fill:rgb(49,48,44); fill-opacity:0.06666667; stroke-linejoin: miter">
<path d="M395.8326,923.62396L397.14212,933.2808Q398.79062,926.2994,398.83835,924.0822Q398.18167,923.48016,395.8326,923.62396 M454.72983,962.87787L444.84256,971.7211L455.24863,966.3836L474.43594,965.20404L454.72983,962.87787 M406.85513,971.5147L402.082,972.2839L386.50058,974.4578L406.96457,974.1589L421.96237,978.7369L406.85513,971.5147 M496.19833,1000.61017L497.0917,1008.9841L499.7722,1034.1047L499.61575,1017.5297L496.19833,1000.61017 M365.6735,968.81L380.49008,1010.5257Q392.64456,1043.2336,408.95706,1071.1326L365.6735,968.81 M492.12234,1075.3135L491.89767,1082.8589Q483.45065,1086.0376,484.23135,1089.1062Q484.61148,1092.3752,493.82138,1100.3701L488.462,1089.4331L493.90286,1085.6692L492.12234,1075.3135 M484.0049,1184.8411L492.71292,1200.1831Q505.28342,1218.0413,505.84476,1228.4844Q506.0502,1233.6533,504.83566,1238.8135Q504.23563,1242.2712,500.28745,1252.8296L494.97354,1276.0691Q508.95572,1239.783,508.69553,1223.3894Q508.32687,1220.0361,506.52457,1215.7827L484.0049,1184.8411 M564.1294,1250.8513L559.6752,1271.3308L546.3122,1332.7681L560.0621,1284.7312L564.1294,1250.8513"/>
</g>
<g style="fill:rgb(255,52,0); fill-opacity:1.0; stroke-linejoin: miter">
<path d="M553.8923,1077.6296L553.22784,1077.6038Q552.6252,1077.6599,552.229,1077.9878Q551.9328,1078.0227,551.40234,1079.448Q550.9942,1081.4592,551.1436,1084.2053L538.91675,1084.9854Q534.72345,1086.5168,531.4442,1088.7778Q529.3147,1090.3303,528.2688,1092.7473Q526.3292,1098.1877,530.048,1105.2048Q530.9615,1106.7869,532.2012,1108.0957L533.52014,1109.2964Q536.73083,1111.5994,539.5418,1111.5403Q542.249,1111.5288,544.4262,1110.7542L546.8079,1109.8362Q549.2259,1108.751,551.5923,1107.1626Q559.0831,1102.0664,562.5842,1095.4246Q563.6127,1093.3235,563.83856,1091.3716L563.8953,1089.4734Q563.7677,1087.6201,563.0927,1085.9907Q559.8345,1079.3555,553.8923,1077.6296"/>
</g>
<g style="fill:rgb(157,204,64); fill-opacity:1.0; stroke-linejoin: miter">
<path d="M574.2515,1064.6482L574.06305,1064.6213L573.2301,1064.509L564.8961,1073.3174Q567.78876,1075.9478,569.44354,1076.9592Q571.1049,1077.9082,571.4516,1077.9612Q572.13025,1078.2087,572.82416,1078.3118Q574.06067,1078.5034,575.3585,1078.1194L576.30927,1077.7483Q577.2693,1077.2913,578.18884,1076.5784Q580.06665,1075.1082,581.32153,1073.1472Q581.9296,1072.189,582.26697,1071.241L582.5173,1070.3176L582.59357,1069.4438L582.4766,1068.6418L582.2053,1068.011Q581.8519,1067.4165,581.2532,1066.95Q580.0144,1066.0249,578.2822,1065.511Q576.91296,1065.0527,574.2515,1064.6482"/>
</g>
<g style="fill:rgb(180,97,53); fill-opacity:1.0; stroke-linejoin: miter">
<path d="M520.4601,1101.3574L513.29285,1112.3054Q516.2289,1123.8821,521.5547,1125.863Q525.1261,1127.1208,529.45715,1125.3721Q531.47455,1124.5247,533.03827,1123.1841Q533.80927,1122.5203,534.4013,1121.7715L535.0591,1120.813Q535.6382,1119.8259,535.9276,1118.7654L536.1498,1117.6965Q536.3024,1116.6138,536.19824,1115.5159Q535.8415,1112.1443,533.57947,1109.3364Q532.83984,1108.4309,531.93695,1107.6367Q531.5654,1107.1853,528.9353,1105.4529Q526.23486,1103.7686,520.4601,1101.3574"/>
</g>
<g style="fill:rgb(255,247,152); fill-opacity:1.0; stroke-linejoin: miter">
<path d="M546.706,1062.9609L527.53394,1070.69Q527.80457,1074.0884,528.728,1076.7751Q529.38403,1078.5225,530.81433,1079.4268Q532.32825,1080.3164,534.66925,1079.9985L536.0855,1079.7441Q537.5714,1079.4026,539.18695,1078.7854L540.7977,1078.117Q542.4223,1077.3889,543.95306,1076.4937Q545.484,1075.5984,546.77246,1074.6089Q549.41766,1072.5942,550.2209,1070.6328Q550.8937,1068.6965,550.14233,1067.0796Q549.08167,1064.8179,546.706,1062.9609"/>
</g>
<g style="fill:rgb(77,77,79); fill-opacity:1.0; stroke-linejoin: miter">
<path d="M530.57477,1083.6069L530.0976,1083.5393Q527.93335,1083.2439,524.61255,1082.9109L511.3041,1087.5491Q511.42142,1097.6179,513.2141,1103.1433Q514.6627,1107.8132,518.4441,1108.4441Q522.76587,1108.9077,528.5143,1104.6604Q529.27673,1104.2427,532.9432,1100.917Q534.3837,1099.5303,535.6591,1098.0586Q538.26263,1095.0701,539.57446,1092.2917Q540.20416,1090.9253,540.35297,1089.7488L540.3553,1088.6426L540.1761,1087.9182Q539.91815,1087.2312,539.38434,1086.6765Q537.69495,1084.6501,530.57477,1083.6069"/>
</g>
<g style="fill:rgb(255,249,157); fill-opacity:1.0; stroke-linejoin: miter">
<path d="M570.11084,802.80096L725.2238,802.8285L870.4199,802.85425Q864.657,1000.5993,859.1096,1190.9431Q719.16174,1203.2402,570.03625,1216.3438Q570.0728,1013.7795,570.11084,802.80096"/>
</g>
<g style="fill:rgb(0,0,0); fill-opacity:1.0; stroke-linejoin: miter">
<path d="M655.0431,1086.843L664.1252,1087.302L673.1699,1087.759Q648.7442,1287.1665,625.0297,1480.769Q616.152,1481.1165,607.2385,1481.4661Q630.78644,1287.0806,655.0431,1086.843"/>
</g>
<g style="fill:rgb(0,0,0); fill-opacity:1.0; stroke-linejoin: miter">
<path d="M790.2177,1080.3091L772.9473,1083.3606L806.762,1455.8843L823.117,1451.6833L790.2177,1080.3091"/>
</g>
<g style="fill:rgb(0,0,0); fill-opacity:1.0; stroke-linejoin: miter">
<path d="M602.8141,1173.7871L725.9259,1164.0173L842.70605,1154.75Q842.03564,1179.2185,841.3686,1203.5671Q725.1372,1214.071,602.63666,1225.1414Q602.7252,1199.5303,602.8141,1173.7871"/>
</g>
<g style="fill:rgb(0,0,0); fill-opacity:1.0; stroke-linejoin: miter">
<path d="M519.5514,1230.1726L518.9032,1231.6367Q514.07874,1236.1672,489.98825,1239.6655Q465.73026,1243.1677,432.70908,1243.8926Q401.18668,1244.3665,382.17935,1241.7256Q376.08884,1240.8699,372.12473,1239.742L368.7842,1238.5554Q366.02127,1237.3054,365.93668,1235.8386Q366.59415,1231.3042,388.1566,1227.5139Q409.71915,1223.7239,442.3533,1222.4062Q474.99576,1221.3159,496.77872,1223.5073Q518.56165,1225.6992,519.5514,1230.1726"/>
</g>
<g style="fill:rgb(0,0,0); fill-opacity:1.0; stroke-linejoin: miter">
<path d="M376.1191,1231.8767L383.51617,1231.6044L390.91324,1231.3322Q394.58527,1330.9287,398.2573,1430.5251Q390.8603,1430.7983,383.46332,1431.0717Q379.7912,1331.4741,376.1191,1231.8767"/>
</g>
<g style="fill:rgb(0,0,0); fill-opacity:1.0; stroke-linejoin: miter">
<path d="M462.89578,1223.596L477.6885,1223.051L484.11356,1397.2866L469.32095,1397.8333L462.89578,1223.596"/>
</g>
<g style="fill:rgb(0,0,0); fill-opacity:1.0; stroke-linejoin: miter">
<path d="M730.6522,1179.9907L738.67065,1344.3535L746.6891,1508.7161Q757.67084,1507.418,768.6526,1506.1199Q762.4385,1343.9016,756.22437,1181.6829L730.6522,1179.9907"/>
</g>
<g style="fill:rgb(0,0,0); fill-opacity:1.0; stroke-linejoin: miter">
<path d="M424.4586,1236.6293L439.25272,1236.0847L446.59677,1435.2777L431.8028,1435.8242L424.4586,1236.6293"/>
</g>
</g>
</svg>